<?xml version="1.0" standalone="no"?><!DOCTYPE svg PUBLIC "-//W3C//DTD SVG 1.1//EN" "http://www.w3.org/Graphics/SVG/1.1/DTD/svg11.dtd"><svg t="1679729826508" class="icon" viewBox="0 0 1078 1024" version="1.1" xmlns="http://www.w3.org/2000/svg" p-id="11523" id="mx_n_1679729826514" width="2728.6875" height="2592" xmlns:xlink="http://www.w3.org/1999/xlink"><path d="M546.180591 225.094218c-157.884942 0-277.358254 0-279.48485 1.063298-10.411457 0-25.962186 14.930472-28.797646 23.46639l-4.267959 12.803876c-4.179351 20.867218 9.495839 42.989717 24.529687 48.010846 22.432628 7.47262 45.293529 4.267959 131.213892 4.267958h109.874096v334.968316c0 298.698049 1.063298 337.094911 2.141364 342.426167 6.113962 18.312349 17.721629 32.002308 42.664821 32.002307 25.637289 0 36.270266-12.818645 42.66482-32.002307 1.063298-5.331257 2.141363-43.742886 2.141364-342.426167V314.706586h109.874097c67.209276 0 114.142056 0 118.410014-1.063297 22.211108-5.552777 31.825091-15.314441 37.333564-37.333564a30.540273 30.540273 0 0 0 0-13.867175l-4.267959-12.803876c-3.854454-11.578131-17.573948-18.652014-28.797646-23.46639l-275.231659-1.063298z" p-id="11524"></path></svg>